<svg width="318" height="439" viewBox="0 0 318 439" fill="none" xmlns="http://www.w3.org/2000/svg">
<path d="M122.982 62.5588V221.851L102.162 208.539L81.3557 235.918V66.7731L63.8845 68.5453L58.791 65.0567L298.951 38.9893L298.672 36.2961L55.3721 62.6983L51.1578 59.7958L294.081 33.24L293.788 30.5468L47.725 57.4653L43.0502 54.2558L289.783 26.9604L289.476 24.2672L39.6452 51.8974L34.4401 48.3111L284.34 20.5273L284.033 17.848L31.0352 45.9667L25.3835 42.0873L33.4633 41.264L290.564 13.2988L281.145 0L0 29.7932V33.868V44.7247V402.774L50.9206 438.721V439L317.064 411.984L317.12 42.8687L122.982 62.5588Z" fill="#34A38F"/>
</svg>
