<svg width="398" height="304" viewBox="0 0 398 304" fill="none" xmlns="http://www.w3.org/2000/svg">
<g clip-path="url(#clip0_3_11662)">
<path d="M371.073 262.06L371.753 246.778C378.845 242.991 386.756 240.991 394.797 240.951C383.73 249.99 385.113 267.416 377.609 279.572C375.24 283.346 372.051 286.538 368.279 288.913C364.506 291.288 360.247 292.784 355.817 293.291L346.556 298.957C345.285 291.879 345.565 284.609 347.377 277.65C349.189 270.691 352.49 264.207 357.052 258.644C359.642 255.549 362.612 252.792 365.891 250.438C368.11 256.282 371.073 262.06 371.073 262.06Z" fill="#F2F2F2"/>
<path d="M230.626 302.761C225.908 302.425 224.678 303.355 217.541 302.761H204.456L206.158 271.478L226.757 279.724L329.124 282.235L329.064 282.408C329.018 282.542 324.473 295.823 328.026 300.853L328.173 301.061L327.885 301.064L233.98 301.924C232.955 301.933 231.643 302.833 230.626 302.761Z" fill="#F2F2F2"/>
<path d="M235.935 303.17C226.823 302.522 217.387 306.061 209.511 302.066L203.216 302.446L203.198 302.394C203.149 302.249 200.175 278.872 206.187 269.809L206.452 269.41L206.659 271.557L204.677 300.676L209.069 299.212C219.738 304.228 232.426 300.915 244.636 300.869L327.733 300.562C329.473 300.556 330.924 301.745 330.97 303.212L330.974 303.355L240.954 303.348C239.276 303.348 237.603 303.288 235.935 303.17Z" fill="#CCCCCC"/>
<path d="M323.352 288.544L229.84 286.687L229.744 286.651L207.65 278.379L208.068 277.266L230.066 285.503L323.376 287.356L323.352 288.544Z" fill="#E6E6E6"/>
<path d="M322.853 293.546L229.341 291.69L229.246 291.654L207.151 283.382L207.569 282.269L229.568 290.506L322.877 292.358L322.853 293.546Z" fill="#E6E6E6"/>
<path d="M322.354 298.549L228.842 296.692L228.747 296.656L206.652 288.383L207.07 287.271L229.069 295.508L322.378 297.361L322.354 298.549Z" fill="#E6E6E6"/>
<path d="M236.581 282.558C227.911 281.973 219.457 279.59 211.759 275.561L205.278 272.127L205.447 270.429C205.494 270.18 205.632 269.957 205.834 269.803C206.036 269.649 206.287 269.575 206.541 269.596L207.113 269.603L294.322 270.885C300.03 270.956 305.685 271.981 311.054 273.919L330.055 280.811L330.045 280.911C329.886 282.511 328.271 283.747 326.37 283.724L240.466 282.719C239.166 282.704 237.871 282.65 236.581 282.558Z" fill="#E6E6E6"/>
<path d="M329.873 281.178L329.853 281.177L225.274 278.783L225.201 278.75L206.346 270.027L206.538 269.735L207.11 269.742L225.449 278.231L329.059 280.6L329.889 280.62L329.873 281.178Z" fill="#CCCCCC"/>
<path d="M248.572 270.353L247.244 270.334L217.273 269.891L215.853 269.871C222.701 277.155 237.843 278.977 260.037 276.155L248.572 270.353Z" fill="#CCCCCC"/>
<path d="M332.837 96.1468L334.665 100.396L331.677 115.485L301.192 111.251L301.436 92.8509L302.048 88.8212L332.837 96.1468Z" fill="#FFB6B6"/>
<path d="M348.587 291.709H341.861L338.66 265.793H348.587V291.709Z" fill="#FFB6B6"/>
<path d="M328.581 300.48C328.582 301.241 328.885 301.971 329.423 302.509C329.962 303.048 330.693 303.35 331.454 303.351H344.25L346.455 298.802L347.312 303.351H352.134L350.779 287.105L348.587 286.977L341.221 286.539L340.034 286.464V291.067L329.822 298.115C329.439 298.38 329.126 298.733 328.91 299.145C328.694 299.557 328.581 300.015 328.581 300.48Z" fill="#2F2E41"/>
<path d="M286.423 262H279.698L275.741 223.846L288.378 223.092L286.423 262Z" fill="#FFB6B6"/>
<path d="M266.417 270.771C266.418 271.532 266.721 272.262 267.26 272.8C267.799 273.338 268.529 273.641 269.291 273.642H282.086L284.292 269.093L285.148 273.642H289.971L288.615 257.396L286.659 257.281L279.165 256.829L277.87 256.755V261.358L267.659 268.406C267.276 268.671 266.963 269.024 266.746 269.436C266.53 269.848 266.417 270.306 266.417 270.771Z" fill="#2F2E41"/>
<path d="M351.441 269.361H351.415L350.122 227.222C350.959 225.609 351.384 223.814 351.358 221.998C351.333 220.181 350.859 218.399 349.977 216.81L349.792 216.475L350.272 214.251C350.889 211.394 350.606 208.417 349.462 205.727L348.255 166.42C352.566 138.509 332.022 120.306 332.022 120.306L333.91 105.677L300.68 106.432L301.245 120.306L294.638 142.985C291.161 176.829 267.758 198.102 271.315 230.467C271.323 230.56 271.309 230.653 271.275 230.74C270.914 231.837 270.787 232.996 270.902 234.145C271.017 235.293 271.372 236.405 271.943 237.408C272.091 237.664 272.193 237.944 272.244 238.235C272.977 243.909 273.072 236.732 274.043 242.356L273.854 242.451C273.174 242.686 272.882 243.627 273.202 244.554C273.522 245.481 274.334 246.043 275.014 245.808L292.778 245.998C293.458 245.763 293.75 244.822 293.43 243.895C293.11 242.968 292.298 242.406 291.618 242.641L290.513 243.199L292.362 237.156L293.01 236.552C293.32 236.262 293.561 235.906 293.715 235.51C293.868 235.114 293.93 234.689 293.895 234.266C293.861 233.843 293.731 233.433 293.516 233.068C293.3 232.702 293.005 232.389 292.652 232.154L294.494 222.333L294.232 214.906L294.771 206.48L318.079 172.739L327.509 219.346L337.141 269.83C336.916 270.032 336.748 270.289 336.651 270.575C336.554 270.862 336.533 271.168 336.589 271.465C336.677 271.88 336.908 272.252 337.24 272.516C337.573 272.78 337.987 272.92 338.412 272.912H351.488C351.762 272.912 352.033 272.848 352.278 272.726C352.524 272.605 352.738 272.428 352.904 272.21C353.07 271.992 353.183 271.738 353.235 271.47C353.287 271.201 353.276 270.923 353.204 270.659C353.093 270.28 352.861 269.947 352.542 269.712C352.224 269.477 351.837 269.354 351.441 269.361Z" fill="#2F2E41"/>
<path d="M339.813 24.4448C339.814 27.1352 339.154 29.7847 337.89 32.1607C336.627 34.5367 334.799 36.5666 332.568 38.0722C330.336 39.5778 327.768 40.513 325.09 40.7958C322.412 41.0786 319.705 40.7003 317.208 39.6942C314.71 38.688 312.498 37.0847 310.765 35.025C309.033 32.9653 307.833 30.5122 307.271 27.8811C306.709 25.25 306.802 22.5212 307.542 19.9344C308.282 17.3476 309.646 14.9818 311.515 13.0447L311.594 12.9659C311.726 12.8278 311.857 12.6898 311.996 12.5582L311.998 12.5578L312 12.5563L312.002 12.5542L312.002 12.5517C312.191 12.414 312.365 12.2577 312.522 12.0849C314.743 8.98442 317.261 6.38463 323.361 8.00882C332.142 10.3471 339.813 15.3655 339.813 24.4448Z" fill="#2F2E41"/>
<path d="M249.438 17.4087C249.401 18.2881 249.557 19.1649 249.895 19.9775C250.234 20.79 250.747 21.5185 251.398 22.1116C252.049 22.7048 252.822 23.1481 253.663 23.4104C254.504 23.6727 255.392 23.7477 256.265 23.6299L298.694 58.4172L305.175 47.0373L261.431 16.4209C261.136 14.9687 260.317 13.6752 259.131 12.7854C257.945 11.8956 256.474 11.4714 254.995 11.5932C253.517 11.7149 252.135 12.3742 251.111 13.446C250.086 14.5179 249.491 15.9278 249.438 17.4087Z" fill="#FFB6B6"/>
<path d="M316.61 68.6763C316.61 68.6763 316.597 67.4234 309.852 67.4716C301.48 67.5314 278.421 55.5231 280.438 44.2139C279.481 44.6462 278.406 44.7479 277.385 44.5031C276.363 44.2582 275.452 43.6807 274.794 42.8615L286.02 32.0642C289.542 32.3019 289.578 34.6567 289.276 36.0088L298.298 39.5901L321.795 53.0764L317.646 66.623L316.61 68.6763Z" fill="#34A38F"/>
<path d="M319.307 42.0299C326.927 42.0299 333.103 35.8594 333.103 28.2476C333.103 20.6359 326.927 14.4653 319.307 14.4653C311.688 14.4653 305.512 20.6359 305.512 28.2476C305.512 35.8594 311.688 42.0299 319.307 42.0299Z" fill="#FFB7B7"/>
<path d="M300.346 96.7992C299.584 97.8152 299.195 99.0621 299.245 100.331C299.294 101.599 299.778 102.813 300.616 103.767C300.623 104.171 300.684 104.562 301.257 106.011C301.332 106.151 301.42 106.284 301.52 106.408C301.539 106.438 301.559 106.468 301.581 106.496C302.185 107.276 303.024 107.841 303.975 108.106L329.228 115.148L332.567 116.078L333.154 116.239L333.478 111.684C334.229 111.063 334.732 110.193 334.896 109.232C335.061 108.272 334.876 107.284 334.375 106.449L333.909 105.68L336.621 98.3962L336.884 97.6752L343.798 79.084L343.804 77.8442L343.818 76.5639L343.885 67.6288C343.888 64.8127 343.238 62.0342 341.986 59.5112C340.734 56.9883 338.914 54.7895 336.668 53.0874C334.623 51.5259 332.265 50.4228 329.755 49.8529L329.701 49.8462L326.969 46.1738L315.887 47.2789L314.97 49.1589L313.857 51.423L305.823 56.2005L303.078 62.575L301.223 66.8876C298.35 68.9495 296.637 71.5977 296.144 74.7513C295.092 81.4492 299.787 88.1539 300.346 88.9221L300.488 96.6106L300.346 96.7992Z" fill="#34A38F"/>
<path d="M333.745 31.8607C333.62 31.841 333.495 31.8146 333.37 31.7949C331.218 31.4136 329.066 31.0389 326.921 30.651L326.723 25.7926L324.124 30.1447C318.195 32.1105 312.647 30.9994 307.429 28.5472C305.707 27.7308 304.037 26.8109 302.427 25.7926C301.897 17.5759 305.222 12.3156 311.41 12.8673C311.636 12.8874 311.798 12.6569 311.996 12.5582L311.998 12.5577L312 12.5563L312.002 12.5542L312.002 12.5516C312.338 12.3939 312.68 12.2427 313.022 12.1046C315.701 11.0587 318.623 10.7938 321.446 11.3407C324.27 11.8877 326.88 13.2241 328.974 15.1946C333.186 19.2116 335.081 25.8451 333.745 31.8607Z" fill="#2F2E41"/>
<path d="M333.37 31.7949C333.37 31.7949 329.284 16.5555 311.766 13.0382C311.746 13.0317 311.68 13.0053 311.594 12.9659C311.542 12.933 311.476 12.9001 311.41 12.8673C311.608 12.7555 311.798 12.657 311.996 12.5582L311.998 12.5578L312.001 12.5563L312.002 12.5542L312.002 12.5517C312.174 12.3939 312.345 12.2361 312.522 12.0849L313.022 12.1046C313.022 12.1046 330.6 9.32369 333.37 31.7949Z" fill="#FD6584"/>
<path d="M340.11 127.861C339.785 128.138 339.391 128.32 338.969 128.389C338.548 128.457 338.116 128.408 337.721 128.247C336.934 127.914 336.236 127.403 335.68 126.756C333.41 124.377 331.789 121.458 330.97 118.276L331.727 116.931C331.43 115.272 331.71 113.562 332.519 112.084C333.329 110.606 334.621 109.449 336.179 108.805C337.066 108.43 338.049 108.344 338.988 108.561C339.453 108.677 339.879 108.916 340.219 109.253C340.56 109.59 340.803 110.013 340.923 110.477C341.215 111.915 340.015 113.214 338.8 114.04C336.684 115.476 334.237 116.35 331.689 116.582C334.805 118.337 337.499 120.752 339.581 123.658C340.063 124.264 340.418 124.96 340.625 125.706C340.725 126.079 340.73 126.472 340.64 126.848C340.55 127.225 340.368 127.573 340.11 127.861Z" fill="#2F2E41"/>
<path d="M165.728 303.84H397.258C397.455 303.84 397.643 303.762 397.783 303.623C397.922 303.484 398 303.295 398 303.099C398 302.902 397.922 302.714 397.783 302.575C397.643 302.436 397.455 302.358 397.258 302.358H165.728C165.532 302.358 165.343 302.436 165.204 302.575C165.065 302.714 164.987 302.902 164.987 303.099C164.987 303.295 165.065 303.484 165.204 303.623C165.343 303.762 165.532 303.84 165.728 303.84Z" fill="#CCCCCC"/>
<path d="M227.218 113.352V113.739C226.384 112.762 225.533 111.795 224.691 110.827C224.337 110.423 223.983 110.019 223.63 109.615C222.13 107.915 220.622 106.22 219.106 104.532C217.581 102.848 216.056 101.165 214.514 99.4903C214.144 99.0864 213.773 98.6824 213.394 98.2785C213.091 97.939 212.761 97.6238 212.408 97.3358C212.053 97.04 211.644 96.8144 211.204 96.6709C210.697 96.5307 210.163 96.5249 209.654 96.6542C209.072 96.7888 208.516 96.9992 207.952 97.1759C207.371 97.3695 206.798 97.5546 206.217 97.7398C205.054 98.1185 203.9 98.4973 202.737 98.876C202.723 98.8817 202.708 98.8846 202.693 98.8845C202.678 98.8844 202.663 98.8813 202.649 98.8754C202.635 98.8695 202.623 98.861 202.612 98.8502C202.601 98.8394 202.593 98.8267 202.587 98.8127L202.586 98.8086C202.579 98.7927 202.576 98.7755 202.577 98.7582C202.578 98.741 202.582 98.7242 202.59 98.7089C202.598 98.6936 202.61 98.6803 202.623 98.6699C202.637 98.6595 202.653 98.6523 202.67 98.6488C202.956 98.5562 203.251 98.4636 203.546 98.371C204.717 97.9839 205.879 97.6052 207.051 97.2265C207.632 97.0329 208.213 96.8477 208.794 96.6626C209.334 96.458 209.903 96.3442 210.479 96.3259C211.42 96.3935 212.303 96.8073 212.956 97.4873C213.318 97.824 213.647 98.1774 213.975 98.5393C214.363 98.9601 214.75 99.3809 215.138 99.8018C216.696 101.502 218.244 103.207 219.78 104.919C221.321 106.636 222.849 108.355 224.363 110.078C224.472 110.204 224.581 110.33 224.691 110.457C225.542 111.416 226.376 112.384 227.218 113.352Z" fill="white"/>
<path d="M212.278 98.8864C211.959 98.4768 211.535 98.1619 211.051 97.9756L210.572 97.9924C214.332 103.837 219.258 108.845 225.042 112.703C220.787 108.097 216.532 103.492 212.278 98.8864Z" fill="white"/>
<path d="M290.744 159.63L271.66 57.5436C271.333 55.8608 270.444 54.3387 269.138 53.2269C267.832 52.1151 266.186 51.4797 264.471 51.4247C264.317 51.4213 264.163 51.4213 264.009 51.4247L251.008 51.8906L249.609 51.942L243.12 52.175L241.721 52.2229L237.547 52.3737L153.39 55.392C153.263 55.3989 153.133 55.3989 153.006 55.3954L134.147 55.0015L127.169 54.8575L126.946 54.8541L121.795 54.7445L76.9107 53.8126L65.0107 53.5625L59.143 53.4426L57.7369 53.4118L51.0462 53.2747L49.6436 53.2439L42.7985 53.1034L41.3958 53.0726L33.8751 52.9149L32.6954 52.891L25.9875 52.7505L24.9279 52.73H24.7735C22.9927 52.7372 21.2718 53.3732 19.915 54.5255C18.5582 55.6779 17.6529 57.2723 17.3592 59.027L0.0989828 164.961C-0.0762932 166.034 -0.0159478 167.132 0.275825 168.179C0.567598 169.227 1.08381 170.199 1.78874 171.027C2.49367 171.855 3.37044 172.521 4.35832 172.977C5.34619 173.433 6.42156 173.67 7.50991 173.67H106.633C108.092 173.674 109.512 174.142 110.687 175.006L112.566 176.397C113.861 177.349 115.426 177.865 117.035 177.87C136.179 172.822 156.307 172.822 175.451 177.87C176.438 177.872 177.416 177.679 178.328 177.302C179.24 176.924 180.067 176.37 180.763 175.67C181.953 174.482 183.541 173.775 185.221 173.687L283.755 168.5C284.824 168.444 285.868 168.161 286.818 167.669C287.768 167.177 288.602 166.488 289.263 165.648C289.925 164.808 290.4 163.837 290.655 162.799C290.91 161.761 290.941 160.68 290.744 159.63Z" fill="#CCCCCC"/>
<path d="M263.742 143.71C263.616 147.17 262.119 150.437 259.582 152.795C257.045 155.153 253.674 156.407 250.211 156.283C244.49 156.081 237.662 155.98 230.251 156.135C206.05 156.652 175.646 159.979 157.357 171.946C155.058 173.453 152.342 174.198 149.595 174.073C149.393 174.061 149.197 174.049 148.995 174.031C146.147 173.771 143.464 172.583 141.358 170.651C131.283 161.441 108.176 150.288 55.2838 149.504C55.0638 149.504 54.8496 149.492 54.6355 149.48C52.9224 149.372 51.2473 148.928 49.706 148.173C48.1647 147.419 46.7875 146.368 45.6529 145.081C44.5184 143.794 43.6488 142.297 43.0939 140.674C42.5391 139.051 42.3098 137.335 42.4191 135.624L47.6173 53.2047L48.3965 40.8516L49.7644 19.2413C49.9024 17.0649 50.8645 15.0227 52.4553 13.5295C54.0461 12.0363 56.1462 11.2041 58.329 11.202H58.3825L89.893 11.3862C103.168 11.9863 114.163 13.6758 122.879 16.4546C125.856 17.3768 128.752 18.5414 131.538 19.9365C135.344 21.7798 138.764 24.3308 141.614 27.4529C143.389 29.4473 145.81 30.7537 148.453 31.1427C148.863 31.2039 149.276 31.2416 149.69 31.2556C152.128 31.3564 154.533 30.6687 156.548 29.2948C177.133 15.5158 219.081 14.47 242.247 15.0642C245.487 15.1397 248.583 16.4173 250.931 18.6481C253.28 20.879 254.713 23.9033 254.951 27.132L255.891 39.4256L256.825 51.6836L262.214 122.528L263.712 142.237C263.749 142.727 263.759 143.219 263.742 143.71Z" fill="#F2F2F2"/>
<path d="M63.1231 40.2039C82.1121 34.1514 103.297 35.7537 121.286 44.2805C126.419 46.7007 131.267 49.6836 135.74 53.174C137.005 54.1661 138.806 52.3914 137.527 51.3886C121.004 38.5854 100.243 32.5033 79.4158 34.3643C73.6538 34.8794 67.9652 36.0211 62.4512 37.7692C60.9076 38.2612 61.5674 40.6997 63.1231 40.2039Z" fill="#3F3D56"/>
<path d="M167.613 54.1534C185.268 44.8828 206.409 42.8612 225.605 48.1236C231.077 49.6203 236.366 51.721 241.373 54.387C242.807 55.1516 244.086 52.9729 242.649 52.2069C224.354 42.4544 202.393 40.2094 182.414 45.6458C176.841 47.1651 171.45 49.2868 166.337 51.9732C164.897 52.7296 166.173 54.9095 167.613 54.1534Z" fill="#3F3D56"/>
<path d="M167.613 70.9855C185.268 61.7149 206.409 59.6933 225.605 64.9557C231.077 66.4524 236.366 68.5531 241.373 71.2191C242.807 71.9838 244.086 69.805 242.649 69.039C224.354 59.2865 202.393 57.0415 182.414 62.4779C176.841 63.9972 171.45 66.1189 166.337 68.8054C164.897 69.5616 166.173 71.7416 167.613 70.9855Z" fill="#3F3D56"/>
<path d="M243.267 86.9146C243.28 86.6979 243.228 86.4822 243.117 86.2956C243.006 86.109 242.841 85.96 242.644 85.8681C227.988 78.2014 211.371 75.0918 194.931 76.9397C194.828 76.9479 194.733 76.9644 194.622 76.9726H194.618C194.517 76.9817 194.416 76.9968 194.317 77.018C184.539 78.1421 175.053 81.063 166.338 85.6333C166.148 85.7463 165.991 85.9068 165.882 86.099C165.772 86.2911 165.715 86.5083 165.715 86.7293V118.129C165.718 118.322 165.766 118.512 165.853 118.685C165.941 118.857 166.066 119.007 166.22 119.124C166.374 119.241 166.553 119.321 166.743 119.358C166.933 119.396 167.128 119.39 167.316 119.341C167.703 119.229 168.091 119.122 168.487 119.019C177.297 116.637 186.342 115.223 195.459 114.804C195.653 114.796 195.847 114.788 196.049 114.779C203.475 114.461 210.915 114.728 218.299 115.579C218.454 115.587 218.608 115.604 218.761 115.628C219.14 115.669 219.528 115.715 219.907 115.764C220.06 115.781 220.204 115.797 220.345 115.822C221.821 116.007 223.285 116.217 224.753 116.444C226.873 116.782 228.993 117.158 231.113 117.573C231.245 117.598 231.381 117.631 231.517 117.655C234.92 118.331 238.306 119.114 241.675 119.979C241.863 120.027 242.059 120.033 242.249 119.994C242.439 119.956 242.617 119.875 242.772 119.758C242.926 119.64 243.051 119.489 243.138 119.316C243.226 119.144 243.272 118.953 243.275 118.76V86.964C243.277 86.9472 243.274 86.9302 243.267 86.9146Z" fill="#3F3D56"/>
<path d="M196.912 78.6518C195.987 78.1988 194.925 78.1056 193.935 78.3905C193.497 78.5544 193.096 78.8036 192.756 79.1235C192.415 79.4434 192.142 79.8276 191.951 80.254C191.608 81.0715 191.388 81.9353 191.298 82.8174C191.246 83.1643 191.243 83.6021 191.592 83.764C191.718 83.81 191.855 83.8204 191.987 83.7943C192.12 83.7681 192.242 83.7064 192.342 83.6157C192.522 83.4381 192.671 83.2311 192.781 83.0035C193.387 82.0614 194.221 81.2872 195.206 80.7523C196.191 80.2173 197.295 79.939 198.416 79.943L199.349 80.3145C198.615 79.654 197.795 79.0948 196.912 78.6518Z" fill="#FF6582"/>
<path d="M207.01 85.8891C206.286 84.8241 205.428 83.6871 204.085 83.3394C202.529 82.9368 200.93 83.7367 199.574 84.5261C195.542 86.8719 191.638 89.43 187.877 92.1897L187.882 92.231L196.61 91.6958C198.712 91.5669 200.886 91.4202 202.744 90.5359C203.411 90.1181 204.157 89.8408 204.935 89.7209C205.418 89.7471 205.89 89.8684 206.326 90.0781C206.761 90.2877 207.151 90.5815 207.473 90.9424C211.495 94.7515 212.659 100.576 217.172 103.923C214.3 97.636 210.901 91.6031 207.01 85.8891Z" fill="white"/>
<path d="M196.05 114.779C195.848 114.787 195.654 114.796 195.46 114.804C194.054 114.299 192.613 113.853 191.156 113.466C190.212 113.213 189.252 112.986 188.291 112.793C187.205 112.557 186.11 112.372 185.014 112.212C182.929 111.909 180.828 111.732 178.721 111.682C178.705 111.684 178.689 111.682 178.674 111.677C178.659 111.672 178.645 111.664 178.633 111.653C178.621 111.643 178.611 111.629 178.605 111.615C178.598 111.6 178.595 111.584 178.595 111.568C178.595 111.552 178.598 111.536 178.605 111.522C178.611 111.507 178.621 111.494 178.633 111.483C178.645 111.472 178.659 111.464 178.674 111.459C178.689 111.455 178.705 111.453 178.721 111.455C178.991 111.455 179.26 111.463 179.522 111.48C181.633 111.558 183.737 111.763 185.823 112.094C186.91 112.271 187.997 112.481 189.075 112.717C190.052 112.936 191.029 113.18 191.99 113.449C193.363 113.836 194.716 114.28 196.05 114.779Z" fill="white"/>
<path d="M220.346 115.822C220.203 115.797 220.059 115.78 219.908 115.764C219.326 115.284 218.737 114.829 218.122 114.383C217.355 113.828 216.563 113.306 215.754 112.818C213.963 111.732 212.094 110.781 210.161 109.973C207.105 108.702 203.942 107.705 200.709 106.994C197.021 106.187 193.288 105.602 189.53 105.244C185.772 104.856 181.998 104.621 178.224 104.385C178.064 104.377 178.056 104.141 178.224 104.149C178.696 104.183 179.168 104.208 179.648 104.242C183.464 104.478 187.28 104.747 191.071 105.176C194.83 105.579 198.559 106.225 202.233 107.112C205.371 107.884 208.432 108.935 211.382 110.251C213.079 111.013 214.722 111.887 216.302 112.868C217.304 113.5 218.273 114.173 219.2 114.888C219.588 115.191 219.975 115.494 220.346 115.822Z" fill="white"/>
<path d="M218.762 115.629C218.608 115.604 218.454 115.587 218.299 115.578C218.122 115.435 217.936 115.301 217.751 115.166C216.454 114.239 215.101 113.393 213.699 112.633C212.426 111.942 211.118 111.315 209.782 110.756C206.727 109.481 203.563 108.484 200.329 107.777C196.642 106.97 192.909 106.385 189.15 106.026C185.393 105.639 181.619 105.403 177.845 105.168C177.685 105.151 177.685 104.924 177.845 104.932C178.325 104.966 178.797 104.991 179.269 105.025C183.085 105.26 186.901 105.53 190.692 105.959C194.451 106.361 198.18 107.008 201.854 107.895C204.992 108.666 208.054 109.716 211.003 111.034C212.115 111.539 213.202 112.086 214.263 112.683C215.837 113.547 217.341 114.532 218.762 115.629Z" fill="white"/>
<path d="M231.516 117.657C231.382 117.632 231.247 117.598 231.112 117.573C230.96 117.413 230.817 117.245 230.674 117.076C229.949 116.243 229.233 115.402 228.526 114.552C225.737 111.236 223.092 107.819 220.598 104.335C218.459 101.355 216.428 98.3171 214.508 95.22C213.589 93.7556 212.705 92.2744 211.837 90.7763C211.163 89.6149 210.506 88.4507 209.866 87.2837C209.681 86.947 209.504 86.6103 209.327 86.2737C208.914 85.4825 208.501 84.6831 208.063 83.9004C207.587 82.9415 206.888 82.1104 206.024 81.4766C205.593 81.1879 205.093 81.0167 204.575 80.9801C203.845 80.9828 203.127 81.1679 202.486 81.5186C197.773 83.7113 193.327 86.4363 189.235 89.6401C185.238 92.7457 181.624 96.3137 178.469 100.27C178.368 100.387 178.148 100.278 178.241 100.152C178.62 99.6805 179.008 99.2091 179.395 98.7462C182.428 95.1624 185.843 91.9199 189.58 89.0762C189.589 89.0678 189.605 89.0594 189.614 89.0511C189.942 88.7901 190.271 88.5377 190.608 88.2936C192.694 86.7587 194.866 85.3426 197.112 84.0519C198.257 83.387 199.428 82.7558 200.624 82.1583C200.919 82.0069 201.223 81.8553 201.526 81.7122C201.829 81.5608 202.132 81.4178 202.436 81.2746C203.036 80.9687 203.692 80.7884 204.365 80.7444C206.707 80.7107 207.911 83.0673 208.745 84.6578C209.007 85.1545 209.276 85.651 209.537 86.1475C210.548 88.0242 211.601 89.8927 212.697 91.7358C213.362 92.8803 214.053 94.0166 214.752 95.1443C215.754 96.7518 216.782 98.3423 217.852 99.9247C217.852 99.9257 217.852 99.9268 217.853 99.9278C217.853 99.9288 217.854 99.9298 217.854 99.9306C217.855 99.9313 217.856 99.932 217.857 99.9324C217.858 99.9328 217.859 99.9331 217.86 99.9331C219.099 101.801 220.388 103.636 221.719 105.462C224.002 108.585 226.394 111.637 228.896 114.619C229.756 115.646 230.629 116.658 231.516 117.657Z" fill="white"/>
<path d="M201.461 80.4879L201.228 80.5897C200.694 79.6892 199.946 78.9344 199.05 78.3925C198.154 77.8505 197.138 77.5381 196.092 77.483C192.643 77.2382 189.613 79.5344 189.337 82.6013C189.226 83.8641 189.592 85.1229 190.363 86.1294L190.147 86.2572C189.343 85.209 188.962 83.898 189.079 82.5829C189.365 79.3892 192.521 76.9979 196.112 77.2528C197.202 77.3102 198.26 77.6355 199.193 78.1999C200.126 78.7642 200.905 79.5502 201.461 80.4879Z" fill="#FF6582"/>
<path d="M184.419 86.6927C183.514 86.2995 182.528 86.127 181.543 86.1896C180.558 86.2523 179.602 86.5482 178.754 87.053C181.85 87.5275 184.918 88.1644 187.947 88.9609C186.693 88.3074 185.712 87.2836 184.419 86.6927Z" fill="white"/>
<path d="M178.737 87.0502L178.396 87.2972C178.511 87.2108 178.631 87.1297 178.755 87.053L178.737 87.0502Z" fill="white"/>
<path d="M189.001 88.4791C188.865 88.3444 188.73 88.2097 188.594 88.0751C187.545 86.935 186.282 86.0119 184.877 85.3583C184.162 85.0573 183.394 84.8991 182.618 84.8926C181.816 84.9113 181.023 85.0651 180.273 85.3475C179.92 85.4729 179.574 85.6153 179.234 85.7669C178.846 85.9409 178.464 86.1264 178.084 86.3134C177.371 86.6643 176.667 87.0307 175.972 87.4124C174.59 88.1721 173.251 88.9897 171.955 89.8652C171.284 90.3193 170.626 90.7883 169.982 91.2721C169.383 91.7216 168.796 92.1831 168.222 92.6567C168.099 92.7575 167.915 92.5943 168.038 92.4935C168.19 92.3681 168.343 92.2434 168.496 92.1203C168.929 91.7724 169.368 91.4312 169.815 91.0967C170.629 90.4856 171.465 89.8981 172.322 89.3342C173.653 88.4568 175.031 87.639 176.455 86.8806C177.167 86.5019 177.888 86.1392 178.619 85.7923C178.84 85.6877 179.063 85.5853 179.289 85.4883C179.805 85.2572 180.337 85.0646 180.881 84.9119C181.662 84.6883 182.479 84.617 183.286 84.7018C184.06 84.8004 184.811 85.0313 185.506 85.3844C186.883 86.1556 188.126 87.1455 189.185 88.3152C189.296 88.426 189.113 88.5899 189.001 88.4791Z" fill="white"/>
<path d="M63.1231 57.0359C82.1121 50.9835 103.297 52.5858 121.286 61.1125C126.419 63.5328 131.267 66.5156 135.74 70.006C137.005 70.9982 138.806 69.2235 137.527 68.2207C121.004 55.4175 100.243 49.3354 79.4158 51.1964C73.6538 51.7115 67.9652 52.8532 62.4512 54.6013C60.9076 55.0933 61.5674 57.5318 63.1231 57.0359Z" fill="#3F3D56"/>
<path d="M63.1231 73.868C82.1121 67.8155 103.297 69.4179 121.286 77.9446C126.419 80.3649 131.267 83.3477 135.74 86.8381C137.005 87.8302 138.806 86.0556 137.527 85.0528C121.004 72.2496 100.243 66.1675 79.4158 68.0285C73.6538 68.5436 67.9653 69.6853 62.4512 71.4334C60.9076 71.9254 61.5674 74.3639 63.1231 73.868Z" fill="#3F3D56"/>
<path d="M63.1231 90.7001C82.1121 84.6476 103.297 86.25 121.286 94.7767C126.419 97.197 131.267 100.18 135.74 103.67C137.005 104.662 138.806 102.888 137.527 101.885C121.004 89.0817 100.243 82.9996 79.4158 84.8606C73.6538 85.3757 67.9652 86.5174 62.4512 88.2655C60.9076 88.7575 61.5674 91.196 63.1231 90.7001Z" fill="#3F3D56"/>
<path d="M63.1231 107.532C82.1121 101.48 103.297 103.082 121.286 111.609C126.419 114.029 131.267 117.012 135.74 120.502C137.005 121.494 138.806 119.72 137.527 118.717C121.004 105.914 100.243 99.8317 79.4158 101.693C73.6538 102.208 67.9652 103.35 62.4512 105.098C60.9076 105.59 61.5674 108.028 63.1231 107.532Z" fill="#3F3D56"/>
<path d="M63.1231 124.364C82.1121 118.312 103.297 119.914 121.286 128.441C126.419 130.861 131.267 133.844 135.74 137.334C137.005 138.327 138.806 136.552 137.527 135.549C121.004 122.746 100.243 116.664 79.4158 118.525C73.6538 119.04 67.9653 120.182 62.4512 121.93C60.9076 122.422 61.5674 124.86 63.1231 124.364Z" fill="#3F3D56"/>
<path d="M131.538 19.9364V60.2992C131.538 61.1013 130.134 61.7727 128.243 61.9569C128.227 61.9559 128.211 61.958 128.196 61.9629C127.88 61.9866 127.547 62.0045 127.208 62.0045C126.166 62.0236 125.128 61.8545 124.145 61.5054C124.056 61.4697 123.967 61.4281 123.878 61.3925C123.794 61.3449 123.705 61.3033 123.622 61.2558C123.152 60.9765 122.878 60.6497 122.878 60.2992V16.4545C125.855 17.3768 128.752 18.5413 131.538 19.9364Z" fill="#34A38F"/>
<path d="M149.689 29.298H148.452V173.229H149.689V29.298Z" fill="#E6E6E6"/>
<path d="M284.237 127.829C285.115 127.749 285.964 127.477 286.725 127.034C287.486 126.59 288.14 125.986 288.642 125.262C289.144 124.539 289.481 123.714 289.629 122.847C289.777 121.979 289.733 121.089 289.5 120.241L315.181 108.265L330.641 83.2799L318.489 78.3783L308.059 98.5118L281.66 116.086C280.259 116.572 279.085 117.554 278.36 118.847C277.635 120.14 277.41 121.653 277.728 123.101C278.046 124.548 278.884 125.829 280.083 126.701C281.283 127.572 282.761 127.973 284.237 127.829Z" fill="#FFB6B6"/>
<path d="M340.178 59.3452C340.178 59.3452 343.204 60.3322 339.882 66.1969C337.223 70.892 324.268 97.9367 318.981 103.247C319.538 104.137 319.781 105.188 319.675 106.232C319.568 107.276 319.116 108.255 318.391 109.015L306.185 99.3383C305.951 95.8189 308.283 95.4697 309.664 95.5885L312.472 85.6458L322.267 61.1187L338.003 58.593L340.178 59.3452Z" fill="#34A38F"/>
<path d="M340.441 13.374C341.019 11.0429 345.205 9.32166 338.034 6.06715C336.293 5.27731 336.365 2.55727 334.893 1.33914C333.42 0.121007 331.264 -0.443733 329.553 0.407693C328.025 1.16801 327.164 2.88864 326.98 4.58426C326.892 6.29085 327.09 8.00015 327.564 9.64198L327.425 9.84492C330.266 12.0167 333.107 14.1885 335.948 16.3602C336.992 17.1583 338.356 17.9939 339.526 17.3951C340.851 16.7172 340.084 14.8172 340.441 13.374Z" fill="#2F2E41"/>
</g>
<defs>
<clipPath id="clip0_3_11662">
<rect width="398" height="304" fill="white"/>
</clipPath>
</defs>
</svg>
