<svg width="366" height="432" viewBox="0 0 366 432" fill="none" xmlns="http://www.w3.org/2000/svg">
<g clip-path="url(#clip0_3_11839)">
<path d="M159.614 409.865L158.45 414.949L158.73 415.254C158.668 415.409 158.606 415.565 158.531 415.72C157.913 417.115 157.206 418.468 156.415 419.773C155.37 421.507 154.2 423.179 152.987 424.82C152.321 425.728 151.636 426.629 150.952 427.524C150.933 427.555 150.912 427.584 150.889 427.611C150.897 427.58 150.907 427.548 150.921 427.518L150.697 427.469L149.408 421.886L149.016 422.769V422.775L148.382 424.236C148.431 424.503 148.481 424.765 148.543 425.026C148.537 425.019 148.537 425.007 148.531 425.001C148.525 424.994 148.525 424.995 148.525 424.988C148.444 424.814 148.357 424.646 148.276 424.472L147.305 426.698L145.339 426.25C144.305 425.716 143.272 425.175 142.246 424.615C128.219 417.013 115.232 407.31 106.488 394.101C103.013 388.838 100.386 383.064 98.7034 376.988C95.3865 364.916 95.959 351.924 101.995 341.139L101.996 341.137L101.997 341.135L101.999 341.134L102.002 341.133C102.151 340.86 102.306 340.586 102.468 340.313C102.587 340.623 102.699 340.934 102.823 341.245V341.251C104.445 345.472 106.404 349.557 108.679 353.466C108.853 353.77 109.027 354.075 109.214 354.373C114.772 363.693 122.014 371.9 130.571 378.579C130.595 378.601 130.62 378.622 130.646 378.641C130.676 378.666 130.707 378.689 130.739 378.709C132.644 380.201 134.612 381.604 136.645 382.918V382.924C138.232 383.956 139.862 384.932 141.518 385.858C145.046 387.822 148.886 389.712 152.184 392.068C155.389 394.349 158.089 397.066 159.527 400.702C159.639 400.994 159.745 401.286 159.838 401.578L157.274 409.479L159.614 409.865Z" fill="#F0F0F0"/>
<path d="M149.016 422.769V422.775L148.382 424.236C147.423 418.915 148.562 413.29 147.772 407.9C147.685 407.297 147.573 406.694 147.429 406.098C146.62 402.691 144.772 399.502 141.486 397.979C140.527 397.543 139.521 397.22 138.487 397.016C136.446 396.581 134.318 396.487 132.258 396.245C131.741 396.183 131.231 396.115 130.733 396.021C128.07 395.609 125.527 394.627 123.278 393.143C120.525 391.189 118.126 388.78 116.184 386.02C114.901 384.287 113.706 382.49 112.606 380.636C112.456 380.4 112.319 380.158 112.176 379.915C109.601 375.46 107.488 370.752 105.872 365.867C105.04 363.37 104.342 360.83 103.781 358.258C102.534 352.639 101.935 346.895 101.995 341.139C101.995 341.138 101.995 341.138 101.996 341.137C101.996 341.136 101.997 341.135 101.997 341.135C101.998 341.134 101.998 341.134 101.999 341.134C102 341.133 102.001 341.133 102.002 341.133C101.995 340.872 102.002 340.611 102.008 340.35C102.02 339.815 102.848 339.933 102.835 340.468C102.829 340.729 102.823 340.984 102.823 341.245V341.251C102.772 346.766 103.33 352.269 104.485 357.662C104.547 357.935 104.609 358.209 104.665 358.482C106.347 365.955 109.175 373.124 113.047 379.735C113.091 379.81 113.135 379.884 113.184 379.959C114.087 381.494 115.057 382.986 116.078 384.447C117.953 387.259 120.259 389.759 122.911 391.856C125.142 393.524 127.734 394.646 130.478 395.132C130.752 395.182 131.026 395.232 131.306 395.275C131.524 395.313 131.748 395.344 131.972 395.369C134.069 395.63 136.222 395.729 138.307 396.127C139.254 396.306 140.185 396.566 141.088 396.904C142.567 397.496 143.903 398.393 145.01 399.537C146.117 400.681 146.969 402.046 147.51 403.543C148.065 404.995 148.445 406.508 148.643 408.049C148.711 408.553 148.761 409.056 148.805 409.566V409.572C148.867 410.393 148.898 411.22 148.911 412.046C148.923 413.078 148.904 414.11 148.879 415.136C148.741 417.68 148.787 420.231 149.016 422.769Z" fill="white"/>
<path d="M112.96 380.462C110.588 381.666 107.866 381.988 105.279 381.371C102.692 380.754 100.409 379.239 98.8371 377.096C98.5205 376.661 99.1819 376.149 99.4989 376.585C100.959 378.583 103.086 379.994 105.496 380.564C107.906 381.133 110.441 380.823 112.642 379.689C113.121 379.444 113.436 380.218 112.96 380.462Z" fill="white"/>
<path d="M130.397 395.381C132.13 390.233 131.857 384.622 129.632 379.667C129.411 379.176 130.185 378.86 130.406 379.35C132.711 384.511 132.984 390.35 131.169 395.703C130.995 396.213 130.225 395.888 130.397 395.381Z" fill="white"/>
<path d="M104.243 357.739C105.258 357.464 106.188 356.942 106.951 356.22C107.714 355.497 108.285 354.597 108.613 353.599C108.78 353.087 109.551 353.413 109.385 353.922C109.017 355.022 108.385 356.016 107.544 356.816C106.703 357.616 105.679 358.198 104.561 358.512C104.458 358.55 104.344 358.548 104.243 358.506C104.141 358.463 104.06 358.384 104.015 358.284C103.974 358.181 103.974 358.066 104.017 357.964C104.06 357.862 104.141 357.781 104.243 357.739Z" fill="white"/>
<path d="M150.852 427.661C150.865 427.643 150.877 427.63 150.89 427.611C150.865 427.686 150.84 427.761 150.821 427.841L150.852 427.661Z" fill="#F0F0F0"/>
<path d="M169.353 389.395L168.482 392.441L163.13 391.44L161.357 396.904L161.052 397.843L159.838 401.578L157.274 409.479L159.614 409.864L158.451 414.949L158.731 415.254L158.818 415.347L159.396 415.981L162.919 419.823L153.285 428.059L151.742 427.705L150.952 427.524C150.933 427.555 150.912 427.584 150.89 427.611C150.897 427.579 150.908 427.548 150.921 427.518L150.697 427.468L149.408 421.886L149.016 422.769V422.775L148.382 424.236C148.431 424.503 148.481 424.764 148.543 425.026C148.537 425.019 148.537 425.007 148.531 425.001C148.525 424.994 148.525 424.994 148.525 424.988C148.444 424.814 148.357 424.646 148.276 424.472C147.044 421.905 145.868 419.301 144.779 416.665C142.095 410.317 139.989 403.741 138.487 397.016C138.425 396.724 138.356 396.431 138.307 396.133V396.127C137.394 391.778 136.838 387.363 136.645 382.924V382.918C136.546 380.488 136.571 378.054 136.72 375.626C137.113 369.352 138.493 363.178 140.808 357.332C140.821 357.301 140.833 357.276 140.846 357.245C145.283 346.094 153.092 336.421 163.709 331.268C164.151 331.044 164.605 330.833 165.059 330.634H165.072L165.078 330.628C165.364 330.504 165.644 330.385 165.931 330.261C165.837 330.584 165.738 330.908 165.651 331.237C164.395 335.581 163.496 340.019 162.962 344.508V344.515C162.912 344.857 162.869 345.211 162.832 345.559V345.565C161.657 356.393 162.506 367.345 165.333 377.864C165.339 377.895 165.352 377.92 165.358 377.951C166.414 381.856 167.749 385.681 169.353 389.395Z" fill="#F0F0F0"/>
<path d="M159.396 415.981C158.905 416.64 158.401 417.28 157.891 417.921C157.399 418.536 156.907 419.151 156.416 419.773C155.131 421.355 153.983 423.043 152.987 424.82C152.487 425.743 152.071 426.708 151.742 427.705L150.952 427.524C150.933 427.555 150.912 427.584 150.89 427.611C150.897 427.58 150.908 427.548 150.921 427.518C152.371 422.993 155.669 419.487 158.532 415.72C158.631 415.596 158.724 415.471 158.818 415.347L159.396 415.981Z" fill="white"/>
<path d="M166.136 330.609C165.974 330.814 165.806 331.026 165.651 331.237C164.437 332.81 163.29 334.432 162.209 336.104C160.284 339.055 158.575 342.14 157.094 345.335C156.976 345.584 156.857 345.839 156.745 346.094C153.576 353.076 151.51 360.508 150.622 368.123C150.61 368.198 150.603 368.266 150.597 368.341C150.392 370.119 150.259 371.903 150.199 373.693C150 377.064 150.334 380.446 151.188 383.713C151.313 384.142 151.45 384.565 151.599 384.975C151.973 385.981 152.442 386.948 152.999 387.866C153.399 388.535 153.844 389.177 154.331 389.786C154.623 390.159 154.928 390.526 155.252 390.881C155.439 391.086 155.632 391.291 155.824 391.496C155.986 391.651 156.142 391.813 156.304 391.968C157.984 393.597 159.838 395.107 161.357 396.904L161.052 397.843C159.589 395.99 157.704 394.455 156.005 392.839C154.938 391.837 153.968 390.738 153.105 389.556C152.993 389.395 152.875 389.233 152.769 389.065C152.192 388.224 151.695 387.331 151.282 386.399C151.07 385.932 150.877 385.454 150.703 384.957C149.686 381.743 149.223 378.38 149.334 375.011C149.354 372.853 149.483 370.697 149.72 368.552C149.745 368.273 149.776 367.999 149.813 367.719C150.444 362.614 151.595 357.586 153.248 352.714C155.34 346.533 158.218 340.646 161.811 335.197C162.838 333.636 163.927 332.114 165.078 330.628C165.227 330.423 165.383 330.224 165.545 330.019C165.875 329.596 166.466 330.187 166.136 330.609Z" fill="white"/>
<path d="M150.109 368.631C147.491 368.165 145.123 366.785 143.429 364.737C141.736 362.689 140.826 360.106 140.862 357.45C140.865 357.341 140.909 357.238 140.986 357.162C141.064 357.086 141.167 357.042 141.276 357.041C141.384 357.04 141.489 357.081 141.568 357.155C141.647 357.229 141.694 357.331 141.699 357.439C141.66 359.913 142.508 362.319 144.089 364.223C145.67 366.127 147.881 367.404 150.322 367.823C150.852 367.914 150.637 368.722 150.109 368.631Z" fill="white"/>
<path d="M155.04 391.029C159.526 387.961 162.69 383.317 163.901 378.022C164.02 377.498 164.829 377.711 164.71 378.235C163.44 383.742 160.138 388.568 155.462 391.751C155.016 392.054 154.597 391.33 155.04 391.029Z" fill="white"/>
<path d="M156.846 345.245C157.821 345.636 158.879 345.779 159.923 345.661C160.968 345.543 161.967 345.167 162.83 344.568C163.272 344.26 163.691 344.983 163.252 345.29C162.295 345.947 161.191 346.36 160.038 346.493C158.884 346.626 157.715 346.475 156.633 346.053C156.528 346.022 156.439 345.952 156.383 345.857C156.328 345.762 156.311 345.65 156.335 345.543C156.364 345.436 156.433 345.345 156.529 345.289C156.625 345.233 156.739 345.217 156.846 345.245Z" fill="white"/>
<path d="M245.56 69.5752C240.848 44.3876 248.266 15.7323 268.883 0.486237C267.714 28.3266 276.442 55.6825 293.522 77.7138C300.139 86.1866 308.383 94.922 308.127 105.665C307.968 112.35 304.348 118.578 299.579 123.269C294.809 127.961 288.934 131.344 283.129 134.673L282.225 136.078C265.208 116.904 250.271 94.7629 245.56 69.5752Z" fill="#F0F0F0"/>
<path d="M269.258 0.871273C260.597 20.2352 258.263 41.8331 262.59 62.5972C263.544 67.04 264.898 71.4639 267.196 75.4111C269.465 79.2413 272.72 82.3947 276.622 84.5436C280.22 86.6202 284.141 88.3282 287.171 91.2422C290.364 94.3138 291.786 98.506 291.668 102.886C291.523 108.245 289.459 113.232 287.27 118.04C284.841 123.377 282.232 128.883 282.39 134.883C282.409 135.61 281.279 135.597 281.259 134.871C280.985 124.431 288.542 116.046 290.225 106.029C291.011 101.354 290.391 96.4146 287.101 92.7912C284.224 89.6227 280.182 87.858 276.521 85.7868C272.677 83.612 269.404 80.9251 266.972 77.2002C264.483 73.3898 262.953 69.0094 261.889 64.6105C259.552 54.6173 258.802 44.3192 259.668 34.0935C260.59 22.4174 263.506 10.9851 268.288 0.291103C268.585 -0.370662 269.553 0.213827 269.258 0.871273Z" fill="white"/>
<path d="M260.802 55.9931C257.216 56.2453 253.657 55.2158 250.76 53.0887C247.864 50.9616 245.819 47.8752 244.99 44.3809C244.825 43.6733 245.918 43.3835 246.083 44.0921C246.849 47.3475 248.754 50.2222 251.456 52.1975C254.157 54.1727 257.476 55.1184 260.814 54.8639C261.539 54.8094 261.523 55.939 260.802 55.9931Z" fill="white"/>
<path d="M274.659 83.7306C279.527 78.2316 282.141 71.1016 281.981 63.7626C281.964 63.0354 283.095 63.0481 283.111 63.7744C283.264 71.4119 280.528 78.8261 275.45 84.5375C274.965 85.0815 274.177 84.2717 274.659 83.7306Z" fill="white"/>
<path d="M261.915 23.1187C263.323 23.3099 264.756 23.1489 266.086 22.65C267.417 22.1511 268.602 21.3301 269.536 20.2605C270.013 19.7106 270.801 20.5211 270.327 21.0674C269.29 22.2442 267.979 23.1494 266.511 23.7039C265.042 24.2583 263.46 24.4451 261.903 24.2479C261.755 24.2416 261.614 24.1791 261.51 24.0731C261.407 23.9672 261.347 23.8256 261.344 23.6773C261.346 23.5278 261.407 23.3853 261.514 23.2807C261.621 23.176 261.765 23.1178 261.915 23.1187Z" fill="white"/>
<path d="M353.194 21.3202C352.905 21.672 352.617 22.0239 352.331 22.385C348.48 27.1352 345.022 32.1901 341.991 37.4998C341.75 37.9066 341.512 38.3225 341.283 38.7353C334.117 51.6053 329.404 65.6925 327.386 80.2809C326.588 86.0866 326.233 91.9446 326.325 97.8042C326.453 105.896 327.235 114.66 324.752 122.103C324.502 122.882 324.203 123.645 323.858 124.388L284.01 137.07C283.905 137.053 283.802 137.046 283.697 137.029L282.129 137.608C282.103 137.307 282.083 136.993 282.057 136.691C282.041 136.516 282.034 136.338 282.019 136.163C282.011 136.045 282.004 135.928 281.99 135.822C281.987 135.783 281.985 135.744 281.985 135.714C281.972 135.608 281.97 135.508 281.959 135.412C281.841 133.659 281.731 131.903 281.64 130.141C281.637 130.132 281.637 130.132 281.643 130.12C280.959 116.704 281.391 103.112 283.874 90.0174C283.949 89.6234 284.02 89.2206 284.113 88.8208C285.265 82.9247 286.897 77.1325 288.994 71.5021C290.152 68.4227 291.465 65.4039 292.929 62.4572C296.725 54.8506 301.696 47.8878 307.658 41.8241C319.546 29.7379 335.172 21.584 351.914 21.3273C352.343 21.321 352.762 21.3174 353.194 21.3202Z" fill="#F0F0F0"/>
<path d="M353.265 21.8539C334.678 32.1057 319.797 47.9471 310.736 67.1279C308.82 71.2489 307.235 75.596 306.69 80.1294C306.194 84.5524 306.892 89.0276 308.712 93.0899C310.333 96.9118 312.434 100.634 313.097 104.782C313.795 109.156 312.404 113.358 309.67 116.784C306.324 120.976 301.669 123.716 297.025 126.239C291.868 129.039 286.467 131.866 282.976 136.752C282.553 137.344 281.658 136.654 282.08 136.063C288.154 127.562 299.241 125.412 306.624 118.426C310.069 115.166 312.551 110.849 312.108 105.977C311.72 101.717 309.557 97.8775 307.882 94.022C306.124 89.9737 305.13 85.8601 305.433 81.423C305.743 76.8841 307.161 72.466 308.963 68.3141C313.12 58.9295 318.729 50.2563 325.583 42.612C333.357 33.8443 342.576 26.4697 352.84 20.8072C353.475 20.457 353.896 21.506 353.265 21.8539Z" fill="white"/>
<path d="M313.289 60.7802C310.274 58.8248 308.053 55.8624 307.022 52.4221C305.992 48.9817 306.219 45.2875 307.664 41.9991C307.958 41.3347 309.006 41.7608 308.711 42.426C307.36 45.4857 307.148 48.9269 308.115 52.1286C309.081 55.3303 311.161 58.0815 313.98 59.8857C314.592 60.2785 313.898 61.1708 313.289 60.7802Z" fill="white"/>
<path d="M307.635 91.2602C314.836 89.7973 321.221 85.6768 325.517 79.7203C325.942 79.1298 326.837 79.8199 326.412 80.4097C321.931 86.5998 315.278 90.8743 307.78 92.3802C307.065 92.5233 306.924 91.4025 307.635 91.2602Z" fill="white"/>
<path d="M333.992 35.2009C335.001 36.2003 336.243 36.9338 337.606 37.3355C338.969 37.7371 340.41 37.7944 341.8 37.5022C342.513 37.3501 342.653 38.4711 341.945 38.6221C340.408 38.9379 338.816 38.8727 337.309 38.4322C335.803 37.9918 334.427 37.1895 333.302 36.0954C333.188 36.0011 333.113 35.8668 333.094 35.7197C333.075 35.5726 333.113 35.4238 333.2 35.3035C333.292 35.1855 333.427 35.1085 333.575 35.0893C333.723 35.0701 333.873 35.1102 333.992 35.2009Z" fill="white"/>
<path d="M97.1258 39.4858C94.9239 37.9332 92.5149 36.3143 89.8206 36.379C83.2993 36.5356 79.7833 46.0849 73.2688 45.749C69.1143 45.5349 66.3564 41.3192 62.4881 39.7906C57.4519 37.8006 51.0431 41.6925 50.4937 47.0744L51.1404 46.4831C70.7169 51.2502 91.032 52.1877 110.965 49.2438C106.352 45.9911 101.739 42.7384 97.1258 39.4858Z" fill="#F0F0F0"/>
<path d="M109.328 50.972C121.825 50.972 131.956 40.8521 131.956 28.3686C131.956 15.8852 121.825 5.76532 109.328 5.76532C96.8303 5.76532 86.6992 15.8852 86.6992 28.3686C86.6992 40.8521 96.8303 50.972 109.328 50.972Z" fill="#FF6582"/>
<path d="M162.295 24.0508C159.489 22.0722 156.419 20.009 152.985 20.0914C144.675 20.2911 140.194 32.4608 131.892 32.0328C126.597 31.7599 123.082 26.3873 118.153 24.4392C111.734 21.9032 103.567 26.8631 102.867 33.7218L103.691 32.9683C128.639 39.0436 154.529 40.2383 179.932 36.4866C174.053 32.3413 168.174 28.196 162.295 24.0508Z" fill="#F0F0F0"/>
<path d="M365.84 250.956L341.826 122.519C341.415 120.402 340.296 118.487 338.653 117.088C337.009 115.689 334.939 114.89 332.781 114.821C332.587 114.816 332.393 114.816 332.199 114.821L315.84 115.407L314.079 115.472L305.915 115.765L304.154 115.825L298.903 116.015L193.008 119.812C192.849 119.821 192.685 119.821 192.525 119.817L168.796 119.321L160.015 119.14L159.734 119.135L153.253 118.998L96.7759 117.825L81.8023 117.51L74.419 117.36L72.6498 117.321L64.2309 117.148L62.466 117.11L53.8529 116.933L52.088 116.894L42.6249 116.696L41.1404 116.666L32.7 116.489L31.3666 116.463H31.1724C28.9317 116.472 26.7663 117.272 25.059 118.722C23.3518 120.172 22.2127 122.178 21.8431 124.386L0.124792 257.662C-0.0957597 259.013 -0.0198401 260.394 0.347291 261.712C0.714423 263.03 1.36398 264.253 2.25098 265.295C3.13798 266.337 4.24122 267.174 5.48425 267.748C6.72728 268.322 8.08039 268.62 9.44985 268.619H134.175C136.011 268.625 137.798 269.213 139.276 270.301L141.641 272.051C143.27 273.249 145.24 273.898 147.263 273.904H220.768C222.01 273.907 223.24 273.664 224.388 273.189C225.535 272.714 226.577 272.017 227.452 271.137C228.949 269.642 230.948 268.753 233.062 268.641L357.045 262.115C358.39 262.045 359.704 261.689 360.899 261.07C362.094 260.451 363.144 259.584 363.976 258.528C364.809 257.471 365.406 256.249 365.727 254.943C366.049 253.637 366.087 252.277 365.84 250.956Z" fill="#CCCCCC"/>
<path d="M346.188 247.464L332.803 114.993C332.798 114.937 332.79 114.877 332.781 114.821C332.53 112.704 331.485 110.762 329.855 109.385L301.06 85.4241C299.808 84.3741 298.252 83.7532 296.62 83.6525C283.446 82.8076 216.47 79.6783 191.748 101.114C190.998 101.766 190.114 102.246 189.158 102.52C188.203 102.794 187.198 102.855 186.216 102.7C185.232 102.54 184.294 102.171 183.465 101.616C182.637 101.061 181.939 100.334 181.418 99.4845C179.316 96.2117 176.562 93.4064 173.327 91.243C171.874 90.2357 170.361 89.3187 168.796 88.4973C167.411 87.7689 165.905 87.062 164.265 86.3809C162.854 85.7947 161.348 85.23 159.734 84.6912C151.367 81.8981 140.182 79.8119 125.234 79.1136C119.033 78.8205 112.293 78.7817 105.203 78.9929C98.7305 79.1826 91.8522 79.5748 84.7624 80.161L84.6588 80.1654L36.6871 109.42C35.6116 110.09 34.7027 110.995 34.0292 112.067C33.3556 113.14 32.935 114.351 32.7991 115.61L32.6998 116.489L17.4673 252.443C17.3357 253.598 17.4421 254.768 17.7797 255.88C18.1173 256.993 18.6792 258.025 19.4307 258.913C20.1623 259.778 21.0732 260.474 22.1006 260.954C23.1281 261.433 24.2474 261.684 25.3813 261.688H143.582C145.154 261.696 146.676 262.236 147.902 263.219L153.063 267.348C154.408 268.427 156.072 269.03 157.797 269.063L209.768 269.913H209.894C211.206 269.91 212.496 269.575 213.643 268.938L223.668 263.378C224.582 262.87 225.6 262.575 226.645 262.516L338.667 256.606C339.759 256.548 340.826 256.261 341.799 255.763C342.772 255.266 343.63 254.569 344.315 253.719C345.028 252.853 345.561 251.854 345.882 250.78C346.204 249.706 346.308 248.579 346.188 247.464Z" fill="#E6E6E6"/>
<path d="M307.087 223.574L305.519 202.956L298.904 116.017L297.92 103.156C297.672 99.778 296.173 96.6135 293.715 94.2795C291.258 91.9455 288.018 90.6092 284.628 90.5312C260.39 89.9096 216.499 91.0036 194.961 105.419C192.565 107.045 189.66 107.747 186.785 107.392C183.91 107.038 181.263 105.652 179.335 103.492C176.355 100.224 172.777 97.5547 168.793 95.6284C165.878 94.1681 162.848 92.9497 159.733 91.9858C150.616 89.0766 139.112 87.3092 125.22 86.6835L92.2503 86.4908H92.1943C89.9104 86.4929 87.713 87.3635 86.0485 88.9256C84.3841 90.4878 83.3774 92.6243 83.2332 94.9011L81.8019 117.509L75.5478 216.656C75.4308 218.503 75.6908 220.354 76.312 222.098C76.9331 223.842 77.9025 225.441 79.1613 226.799C80.4201 228.157 81.9421 229.245 83.6347 229.998C85.3274 230.75 87.1555 231.151 89.0081 231.177C144.349 231.997 168.526 243.665 179.067 253.3C181.309 255.354 184.172 256.603 187.204 256.848C190.236 257.093 193.264 256.322 195.807 254.655C214.943 242.136 246.755 238.655 272.076 238.114C279.83 237.952 286.974 238.058 292.961 238.269C294.885 238.338 296.802 238.001 298.586 237.279C300.371 236.557 301.983 235.467 303.316 234.08C304.65 232.692 305.675 231.04 306.325 229.229C306.974 227.419 307.234 225.492 307.087 223.574Z" fill="white"/>
<path d="M32.3502 252.332C32.3295 252.332 32.308 252.331 32.2873 252.329C32.1719 252.321 32.0592 252.29 31.9557 252.239C31.8522 252.187 31.7598 252.116 31.684 252.028C31.6081 251.941 31.5502 251.84 31.5136 251.73C31.477 251.62 31.4623 251.505 31.4705 251.389L40.9923 117.089C40.9991 116.973 41.029 116.86 41.0803 116.756C41.1315 116.652 41.2031 116.559 41.2907 116.483C41.3784 116.407 41.4804 116.349 41.5907 116.313C41.701 116.277 41.8175 116.263 41.9332 116.273C42.0486 116.281 42.1613 116.312 42.2648 116.363C42.3683 116.415 42.4606 116.487 42.5365 116.574C42.6124 116.661 42.6703 116.762 42.7069 116.872C42.7436 116.982 42.7582 117.098 42.75 117.213L33.2282 251.513C33.2127 251.735 33.1134 251.943 32.9505 252.095C32.7876 252.247 32.573 252.332 32.3502 252.332Z" fill="white"/>
<path d="M43.8087 247.049C43.788 247.049 43.7665 247.048 43.7458 247.046C43.6304 247.038 43.5177 247.008 43.4142 246.956C43.3107 246.904 43.2183 246.833 43.1425 246.746C43.0666 246.658 43.0087 246.557 42.9721 246.447C42.9355 246.338 42.9208 246.222 42.9289 246.107L52.4508 111.806C52.4576 111.691 52.4875 111.577 52.5388 111.473C52.59 111.369 52.6615 111.276 52.7492 111.2C52.8369 111.124 52.9389 111.067 53.0492 111.031C53.1595 110.994 53.276 110.981 53.3917 110.99C53.5071 110.998 53.6198 111.029 53.7233 111.081C53.8268 111.132 53.9191 111.204 53.995 111.291C54.0709 111.378 54.1287 111.48 54.1654 111.589C54.202 111.699 54.2167 111.815 54.2085 111.93L44.6867 246.23C44.6712 246.453 44.5719 246.66 44.409 246.812C44.2461 246.964 44.0315 247.049 43.8087 247.049Z" fill="white"/>
<path d="M54.3858 244.408C54.3652 244.408 54.3436 244.407 54.323 244.405C54.2075 244.397 54.0949 244.366 53.9913 244.315C53.8878 244.263 53.7955 244.191 53.7196 244.104C53.6438 244.017 53.5859 243.916 53.5492 243.806C53.5126 243.696 53.4979 243.581 53.5061 243.465L63.028 109.165C63.0348 109.049 63.0647 108.936 63.1159 108.832C63.1671 108.728 63.2387 108.635 63.3264 108.559C63.414 108.483 63.516 108.425 63.6263 108.389C63.7367 108.353 63.8531 108.339 63.9688 108.349C64.0842 108.357 64.1969 108.388 64.3004 108.439C64.4039 108.491 64.4963 108.563 64.5721 108.65C64.648 108.737 64.7059 108.838 64.7425 108.948C64.7792 109.058 64.7938 109.173 64.7857 109.289L55.2638 243.589C55.2483 243.811 55.1491 244.019 54.9862 244.171C54.8232 244.323 54.6087 244.407 54.3858 244.408Z" fill="white"/>
<path d="M64.963 239.125C64.9423 239.125 64.9208 239.124 64.9001 239.122C64.7847 239.114 64.672 239.083 64.5685 239.032C64.465 238.98 64.3726 238.909 64.2968 238.821C64.2209 238.734 64.163 238.633 64.1264 238.523C64.0898 238.414 64.0751 238.298 64.0832 238.183L73.6051 103.882C73.6119 103.766 73.6418 103.653 73.6931 103.549C73.7443 103.445 73.8159 103.352 73.9035 103.276C73.9912 103.2 74.0932 103.142 74.2035 103.106C74.3138 103.07 74.4303 103.057 74.546 103.066C74.6614 103.074 74.7741 103.105 74.8776 103.157C74.9811 103.208 75.0734 103.28 75.1493 103.367C75.2252 103.454 75.2831 103.556 75.3197 103.665C75.3563 103.775 75.371 103.891 75.3628 104.006L65.841 238.306C65.8255 238.528 65.7262 238.736 65.5633 238.888C65.4004 239.04 65.1859 239.125 64.963 239.125Z" fill="white"/>
<path d="M335.561 253.212C335.582 253.212 335.603 253.211 335.624 253.21C335.74 253.201 335.852 253.171 335.956 253.119C336.059 253.067 336.152 252.996 336.227 252.909C336.303 252.821 336.361 252.72 336.398 252.61C336.434 252.501 336.449 252.385 336.441 252.27L326.919 117.969C326.912 117.854 326.882 117.74 326.831 117.636C326.78 117.532 326.708 117.44 326.621 117.364C326.533 117.288 326.431 117.23 326.321 117.194C326.21 117.158 326.094 117.144 325.978 117.153C325.863 117.162 325.75 117.192 325.647 117.244C325.543 117.296 325.451 117.367 325.375 117.454C325.299 117.542 325.241 117.643 325.205 117.753C325.168 117.862 325.153 117.978 325.161 118.093L334.683 252.394C334.699 252.616 334.798 252.824 334.961 252.976C335.124 253.127 335.338 253.212 335.561 253.212Z" fill="white"/>
<path d="M324.103 245.288C324.123 245.288 324.145 245.287 324.166 245.285C324.281 245.277 324.394 245.247 324.497 245.195C324.601 245.143 324.693 245.072 324.769 244.985C324.845 244.897 324.903 244.796 324.939 244.686C324.976 244.577 324.991 244.461 324.982 244.346L315.461 110.045C315.454 109.93 315.424 109.816 315.373 109.712C315.321 109.608 315.25 109.515 315.162 109.439C315.075 109.363 314.973 109.306 314.862 109.27C314.752 109.234 314.635 109.22 314.52 109.229C314.404 109.237 314.292 109.268 314.188 109.32C314.085 109.371 313.992 109.443 313.916 109.53C313.841 109.618 313.783 109.719 313.746 109.828C313.709 109.938 313.695 110.054 313.703 110.169L323.225 244.47C323.24 244.692 323.34 244.9 323.502 245.051C323.665 245.203 323.88 245.288 324.103 245.288Z" fill="white"/>
<path d="M313.526 236.484C313.546 236.484 313.568 236.483 313.588 236.481C313.704 236.473 313.817 236.442 313.92 236.39C314.024 236.339 314.116 236.267 314.192 236.18C314.268 236.093 314.326 235.991 314.362 235.882C314.399 235.772 314.413 235.656 314.405 235.541L304.883 101.241C304.877 101.125 304.847 101.012 304.795 100.908C304.744 100.804 304.673 100.711 304.585 100.635C304.497 100.559 304.395 100.501 304.285 100.465C304.175 100.429 304.058 100.415 303.943 100.425C303.827 100.433 303.714 100.464 303.611 100.515C303.507 100.567 303.415 100.638 303.339 100.726C303.263 100.813 303.206 100.914 303.169 101.024C303.132 101.134 303.118 101.249 303.126 101.365L312.648 235.665C312.663 235.887 312.762 236.095 312.925 236.247C313.088 236.399 313.303 236.483 313.526 236.484Z" fill="white"/>
<path d="M97.2134 116.829C117.082 110.497 139.247 112.174 158.07 121.094C163.44 123.626 168.512 126.747 173.193 130.398C174.516 131.436 176.4 129.579 175.062 128.53C157.774 115.136 136.052 108.773 114.261 110.72C108.232 111.259 102.28 112.453 96.5104 114.282C94.8953 114.797 95.5857 117.348 97.2134 116.829Z" fill="#3F3D56"/>
<path d="M206.541 131.423C225.013 121.724 247.134 119.609 267.218 125.115C272.944 126.68 278.477 128.878 283.716 131.667C285.217 132.467 286.554 130.188 285.051 129.386C265.909 119.184 242.931 116.835 222.028 122.522C216.197 124.112 210.556 126.331 205.207 129.142C203.7 129.933 205.035 132.214 206.541 131.423Z" fill="#3F3D56"/>
<path d="M206.541 149.032C225.013 139.333 247.134 137.218 267.218 142.724C272.944 144.289 278.477 146.487 283.716 149.276C285.217 150.076 286.554 147.797 285.051 146.995C265.909 136.793 242.931 134.444 222.028 140.131C216.197 141.721 210.556 143.941 205.207 146.751C203.7 147.542 205.035 149.823 206.541 149.032Z" fill="#3F3D56"/>
<path d="M285.698 165.696C285.712 165.47 285.657 165.244 285.541 165.049C285.425 164.853 285.252 164.698 285.046 164.601C269.712 156.581 252.325 153.328 235.124 155.261C235.016 155.269 234.917 155.287 234.801 155.295H234.796C234.69 155.305 234.585 155.321 234.481 155.343C224.25 156.519 214.326 159.574 205.207 164.356C205.008 164.474 204.844 164.642 204.73 164.843C204.615 165.044 204.555 165.271 204.556 165.502V198.352C204.559 198.554 204.608 198.753 204.7 198.933C204.791 199.113 204.923 199.27 205.084 199.392C205.245 199.515 205.432 199.598 205.631 199.638C205.829 199.677 206.034 199.67 206.23 199.619C206.636 199.503 207.041 199.391 207.455 199.283C216.674 196.79 226.137 195.312 235.677 194.873C235.879 194.865 236.082 194.856 236.294 194.847C244.064 194.514 251.848 194.794 259.574 195.684C259.736 195.693 259.897 195.71 260.057 195.735C260.454 195.778 260.86 195.826 261.257 195.878C261.417 195.895 261.568 195.912 261.714 195.938C263.259 196.132 264.791 196.352 266.327 196.589C268.545 196.942 270.763 197.336 272.981 197.77C273.119 197.796 273.262 197.83 273.404 197.856C276.964 198.563 280.507 199.382 284.032 200.287C284.229 200.338 284.434 200.343 284.633 200.303C284.831 200.263 285.018 200.178 285.18 200.055C285.341 199.932 285.472 199.775 285.563 199.594C285.655 199.413 285.704 199.214 285.707 199.011V165.748C285.708 165.73 285.705 165.713 285.698 165.696Z" fill="#3F3D56"/>
<path d="M237.197 157.052C236.229 156.578 235.118 156.481 234.082 156.779C233.624 156.95 233.205 157.211 232.848 157.545C232.492 157.88 232.206 158.282 232.006 158.728C231.647 159.583 231.417 160.487 231.323 161.41C231.269 161.773 231.265 162.231 231.63 162.4C231.763 162.448 231.906 162.459 232.044 162.432C232.183 162.405 232.311 162.34 232.415 162.245C232.604 162.059 232.759 161.843 232.875 161.605C233.509 160.619 234.382 159.809 235.412 159.249C236.443 158.69 237.598 158.399 238.77 158.403L239.747 158.791C238.979 158.1 238.121 157.515 237.197 157.052Z" fill="#FF6582"/>
<path d="M247.763 164.623C247.005 163.509 246.108 162.32 244.702 161.956C243.074 161.535 241.401 162.372 239.983 163.197C235.764 165.652 231.679 168.328 227.744 171.215L227.748 171.258L236.881 170.698C239.08 170.563 241.355 170.41 243.299 169.485C243.997 169.048 244.777 168.757 245.591 168.632C246.096 168.659 246.591 168.786 247.047 169.006C247.503 169.225 247.91 169.532 248.247 169.91C252.455 173.895 253.673 179.989 258.395 183.49C255.39 176.913 251.834 170.601 247.763 164.623Z" fill="white"/>
<path d="M236.295 194.847C236.084 194.856 235.881 194.864 235.678 194.873C234.206 194.345 232.699 193.878 231.174 193.473C230.187 193.209 229.182 192.971 228.177 192.769C227.04 192.522 225.894 192.329 224.749 192.161C222.567 191.844 220.368 191.659 218.164 191.607C218.148 191.609 218.131 191.607 218.115 191.602C218.099 191.597 218.084 191.588 218.071 191.577C218.059 191.566 218.049 191.552 218.042 191.537C218.035 191.521 218.032 191.505 218.032 191.488C218.032 191.471 218.035 191.455 218.042 191.439C218.049 191.424 218.059 191.41 218.071 191.399C218.084 191.388 218.099 191.379 218.115 191.374C218.131 191.369 218.148 191.367 218.164 191.369C218.446 191.369 218.728 191.378 219.002 191.395C221.21 191.477 223.412 191.692 225.595 192.038C226.732 192.223 227.869 192.443 228.997 192.69C230.02 192.919 231.042 193.174 232.047 193.456C233.483 193.861 234.9 194.324 236.295 194.847Z" fill="white"/>
<path d="M261.716 195.939C261.566 195.912 261.416 195.894 261.257 195.877C260.649 195.375 260.032 194.9 259.389 194.433C258.587 193.852 257.758 193.306 256.912 192.795C255.038 191.659 253.082 190.664 251.059 189.819C247.862 188.489 244.552 187.446 241.169 186.703C237.311 185.858 233.405 185.247 229.473 184.871C225.542 184.466 221.593 184.22 217.644 183.973C217.477 183.964 217.468 183.718 217.644 183.727C218.138 183.762 218.631 183.788 219.134 183.823C223.126 184.07 227.119 184.352 231.086 184.801C235.019 185.222 238.92 185.898 242.765 186.826C246.047 187.634 249.251 188.733 252.337 190.11C254.112 190.907 255.832 191.821 257.485 192.848C258.534 193.508 259.547 194.213 260.517 194.961C260.922 195.278 261.328 195.595 261.716 195.939Z" fill="white"/>
<path d="M260.059 195.736C259.898 195.71 259.736 195.693 259.574 195.683C259.389 195.534 259.195 195.393 259.001 195.252C257.644 194.282 256.228 193.396 254.761 192.602C253.429 191.878 252.061 191.223 250.663 190.638C247.467 189.304 244.157 188.261 240.773 187.521C236.914 186.677 233.009 186.065 229.076 185.69C225.145 185.285 221.196 185.039 217.248 184.792C217.08 184.774 217.08 184.537 217.248 184.545C217.75 184.581 218.244 184.607 218.737 184.642C222.73 184.889 226.723 185.171 230.689 185.62C234.622 186.041 238.524 186.717 242.368 187.645C245.651 188.451 248.855 189.55 251.941 190.929C253.104 191.457 254.241 192.029 255.352 192.654C256.999 193.558 258.573 194.588 260.059 195.736Z" fill="white"/>
<path d="M273.403 197.858C273.262 197.831 273.121 197.796 272.98 197.77C272.822 197.603 272.672 197.427 272.522 197.25C271.764 196.379 271.015 195.498 270.274 194.609C267.357 191.14 264.589 187.565 261.98 183.92C259.741 180.804 257.617 177.625 255.607 174.385C254.646 172.853 253.721 171.303 252.813 169.736C252.108 168.521 251.421 167.303 250.751 166.082C250.557 165.73 250.372 165.378 250.187 165.026C249.755 164.198 249.323 163.362 248.864 162.543C248.366 161.54 247.635 160.67 246.731 160.007C246.28 159.705 245.757 159.526 245.215 159.488C244.451 159.491 243.699 159.684 243.029 160.051C238.098 162.345 233.446 165.196 229.164 168.548C224.983 171.796 221.201 175.529 217.9 179.668C217.794 179.791 217.565 179.676 217.662 179.544C218.058 179.051 218.464 178.558 218.869 178.074C222.042 174.325 225.616 170.933 229.526 167.958C229.534 167.949 229.552 167.94 229.561 167.931C229.905 167.658 230.248 167.394 230.601 167.139C232.784 165.533 235.056 164.052 237.406 162.701C238.604 162.006 239.83 161.345 241.081 160.72C241.39 160.562 241.707 160.403 242.024 160.254C242.342 160.095 242.659 159.946 242.976 159.796C243.604 159.476 244.291 159.287 244.995 159.241C247.445 159.206 248.706 161.671 249.578 163.335C249.852 163.855 250.134 164.374 250.407 164.894C251.465 166.857 252.566 168.812 253.712 170.74C254.408 171.937 255.131 173.126 255.863 174.306C256.912 175.987 257.987 177.651 259.107 179.307L259.107 179.31L259.109 179.313L259.112 179.315L259.115 179.316C260.411 181.27 261.76 183.19 263.152 185.1C265.541 188.367 268.044 191.56 270.662 194.68C271.561 195.754 272.475 196.813 273.403 197.858Z" fill="white"/>
<path d="M285.708 193.975V194.38C284.836 193.359 283.945 192.346 283.064 191.334C282.694 190.911 282.324 190.489 281.953 190.066C280.384 188.287 278.807 186.515 277.22 184.748C275.625 182.987 274.029 181.226 272.416 179.474C272.028 179.051 271.641 178.629 271.244 178.206C270.927 177.851 270.582 177.521 270.213 177.22C269.84 176.911 269.413 176.675 268.952 176.524C268.422 176.378 267.863 176.372 267.331 176.507C266.722 176.648 266.14 176.868 265.55 177.053C264.942 177.255 264.342 177.449 263.734 177.643C262.518 178.039 261.31 178.435 260.094 178.831C260.079 178.837 260.063 178.84 260.046 178.84C260.03 178.84 260.014 178.836 259.999 178.83C259.985 178.823 259.971 178.814 259.96 178.802C259.949 178.79 259.941 178.776 259.935 178.761C259.928 178.744 259.925 178.726 259.926 178.708C259.927 178.69 259.932 178.672 259.94 178.657C259.948 178.641 259.96 178.627 259.975 178.616C259.989 178.605 260.006 178.597 260.023 178.594C260.323 178.497 260.632 178.4 260.94 178.303C262.165 177.898 263.382 177.502 264.607 177.106C265.215 176.903 265.823 176.709 266.431 176.516C266.996 176.302 267.591 176.183 268.194 176.164C269.179 176.234 270.102 176.667 270.786 177.379C271.165 177.731 271.508 178.101 271.852 178.479C272.258 178.919 272.663 179.36 273.069 179.8C274.699 181.578 276.318 183.363 277.925 185.153C279.538 186.949 281.137 188.748 282.72 190.55C282.835 190.682 282.949 190.814 283.064 190.946C283.954 191.95 284.827 192.963 285.708 193.975Z" fill="white"/>
<path d="M241.957 158.973L241.713 159.079C241.154 158.137 240.372 157.348 239.434 156.781C238.496 156.214 237.433 155.887 236.339 155.829C232.73 155.573 229.56 157.975 229.272 161.184C229.155 162.505 229.538 163.822 230.345 164.875L230.119 165.008C229.278 163.912 228.879 162.54 229.001 161.165C229.301 157.823 232.602 155.322 236.36 155.588C237.5 155.648 238.607 155.989 239.584 156.579C240.56 157.17 241.375 157.992 241.957 158.973Z" fill="#FF6582"/>
<path d="M224.125 165.464C223.178 165.053 222.147 164.872 221.116 164.938C220.085 165.003 219.085 165.313 218.198 165.841C221.437 166.337 224.647 167.004 227.816 167.837C226.504 167.153 225.478 166.082 224.125 165.464Z" fill="white"/>
<path d="M218.18 165.838L217.823 166.096C217.944 166.006 218.069 165.921 218.198 165.841L218.18 165.838Z" fill="white"/>
<path d="M270.076 178.842C269.743 178.414 269.299 178.084 268.792 177.889L268.291 177.907C272.225 184.022 277.379 189.261 283.431 193.297C278.979 188.478 274.528 183.66 270.076 178.842Z" fill="white"/>
<path d="M228.92 167.333C228.778 167.192 228.637 167.051 228.493 166.91C227.396 165.718 226.075 164.752 224.605 164.068C223.857 163.753 223.054 163.588 222.241 163.581C221.402 163.6 220.573 163.761 219.787 164.057C219.418 164.188 219.057 164.337 218.701 164.496C218.294 164.678 217.895 164.872 217.497 165.067C216.751 165.434 216.015 165.818 215.288 166.217C213.841 167.012 212.441 167.867 211.085 168.783C210.382 169.258 209.694 169.749 209.02 170.255C208.394 170.725 207.78 171.208 207.178 171.703C207.05 171.809 206.858 171.638 206.986 171.533C207.145 171.401 207.305 171.271 207.465 171.142C207.918 170.778 208.378 170.421 208.845 170.071C209.698 169.432 210.572 168.817 211.468 168.227C212.862 167.31 214.303 166.454 215.793 165.661C216.537 165.265 217.292 164.885 218.057 164.522C218.288 164.413 218.521 164.306 218.758 164.204C219.298 163.962 219.855 163.761 220.424 163.601C221.241 163.367 222.095 163.293 222.941 163.381C223.75 163.484 224.535 163.726 225.262 164.095C226.704 164.902 228.004 165.938 229.112 167.161C229.228 167.277 229.037 167.449 228.92 167.333Z" fill="white"/>
<path d="M97.2134 134.438C117.082 128.106 139.247 129.783 158.07 138.703C163.44 141.235 168.512 144.356 173.193 148.007C174.516 149.045 176.4 147.188 175.062 146.139C157.774 132.745 136.052 126.382 114.261 128.329C108.232 128.868 102.28 130.063 96.5104 131.891C94.8953 132.406 95.5857 134.957 97.2134 134.438Z" fill="#3F3D56"/>
<path d="M97.2134 152.047C117.082 145.716 139.247 147.392 158.07 156.312C163.44 158.844 168.512 161.965 173.193 165.616C174.516 166.654 176.4 164.798 175.062 163.748C157.774 150.354 136.052 143.991 114.261 145.938C108.232 146.477 102.28 147.672 96.5104 149.5C94.8953 150.015 95.5857 152.566 97.2134 152.047Z" fill="#3F3D56"/>
<path d="M97.2134 169.657C117.082 163.325 139.247 165.001 158.07 173.921C163.44 176.453 168.512 179.574 173.193 183.225C174.516 184.263 176.4 182.407 175.062 181.358C157.774 167.963 136.052 161.6 114.261 163.547C108.232 164.086 102.28 165.281 96.5104 167.109C94.8953 167.624 95.5857 170.175 97.2134 169.657Z" fill="#3F3D56"/>
<path d="M97.2134 187.266C117.082 180.934 139.247 182.61 158.07 191.53C163.44 194.062 168.512 197.183 173.193 200.834C174.516 201.872 176.4 200.016 175.062 198.967C157.774 185.572 136.052 179.21 114.261 181.157C108.232 181.695 102.28 182.89 96.5104 184.719C94.8953 185.233 95.5857 187.784 97.2134 187.266Z" fill="#3F3D56"/>
<path d="M97.2134 204.875C117.082 198.543 139.247 200.219 158.07 209.139C163.44 211.671 168.512 214.792 173.193 218.444C174.516 219.481 176.4 217.625 175.062 216.576C157.774 203.182 136.052 196.819 114.261 198.766C108.232 199.304 102.28 200.499 96.5104 202.328C94.8953 202.842 95.5857 205.393 97.2134 204.875Z" fill="#3F3D56"/>
<path d="M168.796 88.4973V137.851C168.796 138.692 167.329 139.394 165.348 139.584C165.003 139.618 164.64 139.636 164.265 139.636C163.175 139.656 162.09 139.48 161.063 139.114C160.873 139.04 160.688 138.952 160.511 138.851C160.019 138.562 159.734 138.222 159.734 137.851V84.6912C161.348 85.23 162.854 85.7947 164.265 86.3809C165.905 87.062 167.411 87.7689 168.796 88.4973Z" fill="#34A38F"/>
<path d="M187.788 105.42H186.493V265.068H187.788V105.42Z" fill="#E6E6E6"/>
<path d="M303.322 234.073C301.987 235.461 300.375 236.552 298.589 237.275C296.804 237.998 294.886 238.337 292.961 238.269C286.974 238.058 279.83 237.952 272.076 238.114L272.033 238.076L305.637 194.564L307.087 223.574C307.232 225.49 306.972 227.415 306.323 229.224C305.675 231.033 304.652 232.685 303.322 234.073Z" fill="#F2F2F2"/>
<path d="M219.666 386.15L217.874 400.683L216.505 411.729L215.958 416.186H208.166V412.227L208.16 399.123V386.15H219.666Z" fill="#FFB6B6"/>
<path d="M165.34 384.627L163.131 391.44L161.357 396.904L161.052 397.843L159.839 401.578L157.275 409.479L155.999 413.414L148.911 412.046L148.345 411.941L148.805 409.566L149.085 408.118L152.184 392.068L152.688 389.482L152.769 389.065L153 387.866L154.045 382.452L161.6 383.906L162.471 384.074L165.34 384.627Z" fill="#FFB6B6"/>
<path d="M231.372 299.603C226.916 324.064 225.802 334.625 225.802 334.625C225.802 334.625 229.144 338.516 226.916 340.742C224.688 342.967 226.916 347.411 226.916 347.411L221.907 401.336L217.874 400.683L208.16 399.123L204.656 398.557L206.884 347.971C206.884 347.971 204.656 343.52 205.77 342.407C206.884 341.295 204.656 334.625 204.656 334.625L201.875 281.813L184.618 339.629C184.618 339.629 186.292 341.854 184.618 343.52C182.951 345.186 179.615 353.528 179.615 353.528L169.353 389.395L168.482 392.441L163.13 391.44L157.306 390.346L156.235 390.147L154.331 389.787L153.105 389.557L152.688 389.482L150.672 389.103L151.282 386.399L151.599 384.975L160.28 346.46L160.479 345.571L160.691 344.633C160.691 344.633 159.577 341.854 161.245 340.182C161.733 339.673 162.089 339.052 162.283 338.374C162.477 337.696 162.503 336.981 162.359 336.291C162.304 336.233 162.254 336.17 162.209 336.104C162.012 335.834 161.876 335.525 161.811 335.197C161.662 334.501 161.792 333.525 162.919 332.4C163.236 332.063 163.502 331.682 163.709 331.268C165.402 328.067 166.254 321.285 166.254 321.285C166.254 321.285 167.76 267.572 172.689 259.367C172.884 259.009 173.158 258.7 173.492 258.465C179.055 255.133 232.479 258.465 232.479 258.465C232.479 258.465 232.554 258.851 232.672 259.584C233.313 263.705 235.149 278.854 231.372 299.603Z" fill="#2F2E41"/>
<path d="M229.621 200.924L231.181 191.537L259.908 196.366L300.666 199.279C301.55 198.301 302.727 197.636 304.021 197.38C305.315 197.125 306.657 197.294 307.847 197.862C309.037 198.43 310.011 199.366 310.625 200.532C311.239 201.698 311.46 203.031 311.254 204.333C311.049 205.634 310.428 206.834 309.484 207.755C308.54 208.675 307.324 209.266 306.017 209.441C304.71 209.615 303.381 209.363 302.229 208.722C301.076 208.08 300.162 207.085 299.622 205.883L274.625 207.563L229.621 200.924Z" fill="#FFB6B6"/>
<path d="M208.147 194.426L210.176 186.047C210.176 186.047 221.191 184.021 229.899 185.959L262.66 192.239L260.008 212.021L208.147 194.426Z" fill="#34A38F"/>
<path d="M132.106 263.428L150.435 223.655L163.811 195.516L175.411 202.335L139.299 267.805C139.616 268.972 139.579 270.207 139.194 271.354C138.809 272.5 138.091 273.507 137.133 274.246C136.175 274.985 135.019 275.424 133.811 275.507C132.603 275.59 131.398 275.314 130.347 274.712C129.297 274.111 128.448 273.212 127.909 272.129C127.37 271.046 127.165 269.828 127.319 268.628C127.473 267.429 127.98 266.302 128.775 265.39C129.571 264.478 130.619 263.822 131.787 263.505C131.893 263.477 131.999 263.451 132.106 263.428Z" fill="#FFB6B6"/>
<path d="M184.966 183.458L176.07 179.381C176.07 179.381 174.492 178.834 171.09 183.539C167.688 188.244 138.425 232.641 138.425 232.641L157.008 241.031L184.966 183.458Z" fill="#34A38F"/>
<path d="M229.735 424.839L218.154 416.845V411.63L216.505 411.729L208.166 412.227L205.969 412.357L204.451 430.521L204.432 430.775H209.902L209.952 430.521L210.879 425.616L213.25 430.521L213.375 430.775H227.887C228.322 430.774 228.754 430.688 229.156 430.521C229.695 430.293 230.162 429.926 230.51 429.456C230.857 428.986 231.072 428.432 231.131 427.851C231.19 427.27 231.092 426.684 230.846 426.154C230.6 425.624 230.217 425.17 229.735 424.839Z" fill="#2F2E41"/>
<path d="M167.966 425.318L162.919 419.823L159.397 415.981L158.818 415.347L158.731 415.254L158.451 414.949L159.614 409.865L157.275 409.479L149.085 408.118L148.643 408.049L147.772 407.9L147.573 407.869L144.779 416.665L142.246 424.615L141.972 425.486L145.339 426.25L147.305 426.698L148.276 424.472L148.382 424.236L149.017 422.775V422.769L149.409 421.886L150.697 427.469L150.921 427.518L150.952 427.524L151.742 427.705L153.286 428.059L164.076 430.521L164.842 430.695C165.685 430.882 166.568 430.729 167.299 430.269C168.03 429.81 168.549 429.08 168.743 428.239C168.861 427.726 168.851 427.192 168.716 426.683C168.58 426.174 168.323 425.705 167.966 425.318Z" fill="#2F2E41"/>
<path d="M217.911 157.813C216.653 160.121 214.905 162.126 212.791 163.689C210.677 165.252 208.247 166.336 205.671 166.864C205.384 166.926 205.098 166.976 204.805 167.02C200.763 167.651 196.625 166.897 193.066 164.881C189.506 162.864 186.734 159.704 185.202 155.915C183.669 152.125 183.465 147.928 184.623 144.008C185.781 140.088 188.233 136.675 191.58 134.323C194.928 131.972 198.973 130.822 203.058 131.059C207.143 131.296 211.027 132.907 214.079 135.63C217.131 138.352 219.171 142.026 219.867 146.054C220.562 150.082 219.873 154.227 217.911 157.813Z" fill="#FFB6B6"/>
<path d="M210.705 133.241C204.775 129.167 199.552 128.547 195.262 129.702C194.706 128.843 193.926 128.151 193.007 127.701C189.661 119.28 179.479 114.223 170.741 116.681C161.946 119.156 155.878 128.887 157.533 137.862C158.559 143.426 162.064 148.244 163.474 153.723C166.203 164.329 159.545 176.478 149.13 179.897C158.991 181.875 169.846 175.858 173.384 166.453C175.102 161.885 175.206 156.897 175.424 152.022C175.482 148.657 175.895 145.308 176.656 142.029C177.034 140.558 177.567 139.132 178.248 137.774C179.731 134.789 182.193 132.403 185.224 131.013C184.953 131.852 184.885 132.743 185.026 133.613C185.167 134.483 185.514 135.307 186.037 136.017C183.724 138.911 182.465 142.04 182.465 143.914C177.661 152.685 184.531 160.219 193.312 165.018C196.814 166.942 200.858 167.646 204.806 167.02L205.173 165.453L205.671 166.864L207.332 171.595C209.249 172.521 211.149 173.536 213.033 174.641C212.317 171.284 211.738 167.933 211.34 164.658C210.788 160.199 212.711 153.561 214.098 149.524C214.958 147.037 215.399 144.424 215.404 141.792V141.677L216.754 146.009L221.67 143.914C220.755 138.674 221.67 132.725 210.705 133.241Z" fill="#2F2E41"/>
<path d="M172.933 253.463C173.579 250.909 173.579 248.234 172.933 245.68C171.82 241.789 174.046 240.121 174.046 240.121L174.602 180.083C176.954 177.735 183.253 177.696 186.777 177.879V175.235C186.777 174.262 187.165 173.328 187.854 172.639C188.543 171.951 189.478 171.564 190.452 171.564H206.75C207.725 171.564 208.659 171.951 209.348 172.639C210.038 173.328 210.425 174.262 210.425 175.235V178.404L215.205 178.48C223.529 179.099 230.811 187.31 230.811 187.31L223.577 215.105C223.577 215.105 225.803 237.898 228.585 240.677C231.368 243.457 230.255 245.124 230.255 245.124C230.255 245.124 228.585 251.239 231.925 253.463C235.264 255.687 233.038 259.578 233.038 259.578C233.038 259.578 172.933 260.69 171.263 259.022C169.594 257.354 172.933 253.463 172.933 253.463Z" fill="#34A38F"/>
<path d="M283.676 431.26C283.676 431.358 283.657 431.454 283.62 431.544C283.583 431.634 283.529 431.715 283.46 431.784C283.391 431.853 283.309 431.907 283.219 431.944C283.129 431.981 283.033 432 282.936 432H108.511C108.315 432 108.126 431.922 107.987 431.783C107.849 431.645 107.771 431.456 107.771 431.26C107.771 431.064 107.849 430.876 107.987 430.737C108.126 430.599 108.315 430.521 108.511 430.521H282.936C283.033 430.52 283.129 430.539 283.219 430.576C283.309 430.613 283.391 430.668 283.46 430.737C283.529 430.805 283.583 430.887 283.62 430.977C283.657 431.067 283.676 431.163 283.676 431.26Z" fill="#CCCCCC"/>
</g>
<defs>
<clipPath id="clip0_3_11839">
<rect width="366" height="432" fill="white"/>
</clipPath>
</defs>
</svg>
