<svg width="13" height="13" viewBox="0 0 13 13" fill="none" xmlns="http://www.w3.org/2000/svg">
<path d="M10.1993 7.95006C10.0374 8.10694 9.96305 8.33381 9.99992 8.55631L10.5555 11.6313C10.6024 11.8919 10.4924 12.1557 10.2743 12.3063C10.0605 12.4626 9.77617 12.4813 9.54305 12.3563L6.77492 10.9126C6.67867 10.8613 6.5718 10.8338 6.46242 10.8307H6.29305C6.2343 10.8394 6.1768 10.8582 6.1243 10.8869L3.35555 12.3376C3.21867 12.4063 3.06367 12.4307 2.9118 12.4063C2.5418 12.3363 2.29492 11.9838 2.35555 11.6119L2.9118 8.53694C2.94867 8.31256 2.8743 8.08444 2.71242 7.92506L0.455547 5.73756C0.266797 5.55444 0.201172 5.27944 0.287422 5.03131C0.371172 4.78381 0.584922 4.60319 0.843047 4.56256L3.9493 4.11194C4.18555 4.08756 4.39305 3.94381 4.4993 3.73131L5.86805 0.925061C5.90055 0.862561 5.94242 0.805061 5.99305 0.756311L6.0493 0.712561C6.07867 0.680061 6.11242 0.653186 6.14992 0.631311L6.21805 0.606311L6.3243 0.562561H6.58742C6.82242 0.586936 7.0293 0.727561 7.13742 0.937561L8.5243 3.73131C8.6243 3.93569 8.81867 4.07756 9.04305 4.11194L12.1493 4.56256C12.4118 4.60006 12.6312 4.78131 12.718 5.03131C12.7999 5.28194 12.7293 5.55694 12.5368 5.73756L10.1993 7.95006Z" fill="#EFD809"/>
</svg>
