<svg id="visual" viewBox="0 0 1280 832" width="1280" height="832" xmlns="http://www.w3.org/2000/svg" xmlns:xlink="http://www.w3.org/1999/xlink" version="1.1"><rect x="0" y="0" width="1280" height="832" fill="#FFFFFF"></rect><path d="M0 482L42.7 497.2C85.3 512.3 170.7 542.7 256 573.2C341.3 603.7 426.7 634.3 512 626C597.3 617.7 682.7 570.3 768 563.7C853.3 557 938.7 591 1024 586.8C1109.3 582.7 1194.7 540.3 1237.3 519.2L1280 498L1280 833L1237.3 833C1194.7 833 1109.3 833 1024 833C938.7 833 853.3 833 768 833C682.7 833 597.3 833 512 833C426.7 833 341.3 833 256 833C170.7 833 85.3 833 42.7 833L0 833Z" fill="#34A38F" stroke-linecap="round" stroke-linejoin="miter"></path></svg>